<svg xmlns="http://www.w3.org/2000/svg" width="302" height="352" viewBox="0 0 302 352">
  <path id="Union_2" data-name="Union 2" d="M3,337c0-.117,0-.234,0-.352V336.5a138.734,138.734,0,0,1,11.867-56.246,142.718,142.718,0,0,1,13.922-24.545,147.114,147.114,0,0,1,18.438-21.386,150.828,150.828,0,0,1,22.348-17.645,153.17,153.17,0,0,1,25.65-13.323,155.216,155.216,0,0,1,28.344-8.42q1.585-.31,3.178-.588a106.5,106.5,0,1,1,55.109.106q1.291.23,2.576.482a155.2,155.2,0,0,1,28.345,8.42,153.24,153.24,0,0,1,25.65,13.323,150.773,150.773,0,0,1,22.347,17.645,147.114,147.114,0,0,1,18.438,21.386,142.659,142.659,0,0,1,13.922,24.545A138.694,138.694,0,0,1,305,336.5c0,.166,0,.334,0,.5H3Z" transform="translate(-3 15)"/>
</svg>
